<svg xmlns="http://www.w3.org/2000/svg" xmlns:xlink="http://www.w3.org/1999/xlink" viewBox="6816 284 55 47">
  <defs>
    <style>
      .cls-1, .cls-2, .cls-4 {
        fill: none;
      }

      .cls-2, .cls-4 {
        stroke: #e42f5b;
      }

      .cls-2 {
        stroke-width: 2px;
      }

      .cls-3 {
        clip-path: url(#clip-path);
      }

      .cls-5 {
        fill: #e42f5b;
      }

      .cls-6 {
        stroke: none;
      }
    </style>
    <clipPath id="clip-path">
      <rect class="cls-1" width="41" height="24"/>
    </clipPath>
  </defs>
  <g id="Symbole_17_1" data-name="Symbole 17 – 1" transform="translate(5970)">
    <g id="Rectangle_24" data-name="Rectangle 24" class="cls-2" transform="translate(846 291)">
      <rect class="cls-6" width="55" height="40" rx="4"/>
      <rect class="cls-1" x="1" y="1" width="53" height="38" rx="3"/>
    </g>
    <path id="Tracé_63" data-name="Tracé 63" class="cls-2" d="M6825.2,296.7h36.4" transform="translate(-5970)"/>
    <g id="Grille_de_répétition_4" data-name="Grille de répétition 4" class="cls-3" transform="translate(853 301)">
      <g transform="translate(-853 -301)">
        <g id="Rectangle_25" data-name="Rectangle 25" class="cls-4" transform="translate(853 301)">
          <rect class="cls-6" width="5" height="5"/>
          <rect class="cls-1" x="0.5" y="0.5" width="4" height="4"/>
        </g>
      </g>
      <g transform="translate(-847 -301)">
        <g id="Rectangle_25-2" data-name="Rectangle 25" class="cls-4" transform="translate(853 301)">
          <rect class="cls-6" width="5" height="5"/>
          <rect class="cls-1" x="0.5" y="0.5" width="4" height="4"/>
        </g>
      </g>
      <g transform="translate(-841 -301)">
        <g id="Rectangle_25-3" data-name="Rectangle 25" class="cls-4" transform="translate(853 301)">
          <rect class="cls-6" width="5" height="5"/>
          <rect class="cls-1" x="0.5" y="0.5" width="4" height="4"/>
        </g>
      </g>
      <g transform="translate(-835 -301)">
        <g id="Rectangle_25-4" data-name="Rectangle 25" class="cls-4" transform="translate(853 301)">
          <rect class="cls-6" width="5" height="5"/>
          <rect class="cls-1" x="0.5" y="0.5" width="4" height="4"/>
        </g>
      </g>
      <g transform="translate(-829 -301)">
        <g id="Rectangle_25-5" data-name="Rectangle 25" class="cls-4" transform="translate(853 301)">
          <rect class="cls-6" width="5" height="5"/>
          <rect class="cls-1" x="0.5" y="0.5" width="4" height="4"/>
        </g>
      </g>
      <g transform="translate(-823 -301)">
        <g id="Rectangle_25-6" data-name="Rectangle 25" class="cls-4" transform="translate(853 301)">
          <rect class="cls-6" width="5" height="5"/>
          <rect class="cls-1" x="0.5" y="0.5" width="4" height="4"/>
        </g>
      </g>
      <g transform="translate(-817 -301)">
        <g id="Rectangle_25-7" data-name="Rectangle 25" class="cls-4" transform="translate(853 301)">
          <rect class="cls-6" width="5" height="5"/>
          <rect class="cls-1" x="0.5" y="0.5" width="4" height="4"/>
        </g>
      </g>
      <g transform="translate(-853 -295)">
        <g id="Rectangle_25-8" data-name="Rectangle 25" class="cls-4" transform="translate(853 301)">
          <rect class="cls-6" width="5" height="5"/>
          <rect class="cls-1" x="0.5" y="0.5" width="4" height="4"/>
        </g>
      </g>
      <g transform="translate(-847 -295)">
        <g id="Rectangle_25-9" data-name="Rectangle 25" class="cls-4" transform="translate(853 301)">
          <rect class="cls-6" width="5" height="5"/>
          <rect class="cls-1" x="0.5" y="0.5" width="4" height="4"/>
        </g>
      </g>
      <g transform="translate(-841 -295)">
        <g id="Rectangle_25-10" data-name="Rectangle 25" class="cls-4" transform="translate(853 301)">
          <rect class="cls-6" width="5" height="5"/>
          <rect class="cls-1" x="0.5" y="0.5" width="4" height="4"/>
        </g>
      </g>
      <g transform="translate(-835 -295)">
        <g id="Rectangle_25-11" data-name="Rectangle 25" class="cls-4" transform="translate(853 301)">
          <rect class="cls-6" width="5" height="5"/>
          <rect class="cls-1" x="0.5" y="0.5" width="4" height="4"/>
        </g>
      </g>
      <g transform="translate(-829 -295)">
        <g id="Rectangle_25-12" data-name="Rectangle 25" class="cls-4" transform="translate(853 301)">
          <rect class="cls-6" width="5" height="5"/>
          <rect class="cls-1" x="0.5" y="0.5" width="4" height="4"/>
        </g>
      </g>
      <g transform="translate(-823 -295)">
        <g id="Rectangle_25-13" data-name="Rectangle 25" class="cls-4" transform="translate(853 301)">
          <rect class="cls-6" width="5" height="5"/>
          <rect class="cls-1" x="0.5" y="0.5" width="4" height="4"/>
        </g>
      </g>
      <g transform="translate(-817 -295)">
        <g id="Rectangle_25-14" data-name="Rectangle 25" class="cls-4" transform="translate(853 301)">
          <rect class="cls-6" width="5" height="5"/>
          <rect class="cls-1" x="0.5" y="0.5" width="4" height="4"/>
        </g>
      </g>
      <g transform="translate(-853 -289)">
        <g id="Rectangle_25-15" data-name="Rectangle 25" class="cls-4" transform="translate(853 301)">
          <rect class="cls-6" width="5" height="5"/>
          <rect class="cls-1" x="0.5" y="0.5" width="4" height="4"/>
        </g>
      </g>
      <g transform="translate(-847 -289)">
        <g id="Rectangle_25-16" data-name="Rectangle 25" class="cls-4" transform="translate(853 301)">
          <rect class="cls-6" width="5" height="5"/>
          <rect class="cls-1" x="0.5" y="0.5" width="4" height="4"/>
        </g>
      </g>
      <g transform="translate(-841 -289)">
        <g id="Rectangle_25-17" data-name="Rectangle 25" class="cls-4" transform="translate(853 301)">
          <rect class="cls-6" width="5" height="5"/>
          <rect class="cls-1" x="0.5" y="0.5" width="4" height="4"/>
        </g>
      </g>
      <g transform="translate(-835 -289)">
        <g id="Rectangle_25-18" data-name="Rectangle 25" class="cls-4" transform="translate(853 301)">
          <rect class="cls-6" width="5" height="5"/>
          <rect class="cls-1" x="0.5" y="0.5" width="4" height="4"/>
        </g>
      </g>
      <g transform="translate(-829 -289)">
        <g id="Rectangle_25-19" data-name="Rectangle 25" class="cls-4" transform="translate(853 301)">
          <rect class="cls-6" width="5" height="5"/>
          <rect class="cls-1" x="0.5" y="0.5" width="4" height="4"/>
        </g>
      </g>
      <g transform="translate(-823 -289)">
        <g id="Rectangle_25-20" data-name="Rectangle 25" class="cls-4" transform="translate(853 301)">
          <rect class="cls-6" width="5" height="5"/>
          <rect class="cls-1" x="0.5" y="0.5" width="4" height="4"/>
        </g>
      </g>
      <g transform="translate(-817 -289)">
        <g id="Rectangle_25-21" data-name="Rectangle 25" class="cls-4" transform="translate(853 301)">
          <rect class="cls-6" width="5" height="5"/>
          <rect class="cls-1" x="0.5" y="0.5" width="4" height="4"/>
        </g>
      </g>
      <g transform="translate(-853 -283)">
        <g id="Rectangle_25-22" data-name="Rectangle 25" class="cls-4" transform="translate(853 301)">
          <rect class="cls-6" width="5" height="5"/>
          <rect class="cls-1" x="0.5" y="0.5" width="4" height="4"/>
        </g>
      </g>
      <g transform="translate(-847 -283)">
        <g id="Rectangle_25-23" data-name="Rectangle 25" class="cls-4" transform="translate(853 301)">
          <rect class="cls-6" width="5" height="5"/>
          <rect class="cls-1" x="0.5" y="0.5" width="4" height="4"/>
        </g>
      </g>
      <g transform="translate(-841 -283)">
        <g id="Rectangle_25-24" data-name="Rectangle 25" class="cls-4" transform="translate(853 301)">
          <rect class="cls-6" width="5" height="5"/>
          <rect class="cls-1" x="0.5" y="0.5" width="4" height="4"/>
        </g>
      </g>
      <g transform="translate(-835 -283)">
        <g id="Rectangle_25-25" data-name="Rectangle 25" class="cls-4" transform="translate(853 301)">
          <rect class="cls-6" width="5" height="5"/>
          <rect class="cls-1" x="0.5" y="0.5" width="4" height="4"/>
        </g>
      </g>
      <g transform="translate(-829 -283)">
        <g id="Rectangle_25-26" data-name="Rectangle 25" class="cls-4" transform="translate(853 301)">
          <rect class="cls-6" width="5" height="5"/>
          <rect class="cls-1" x="0.5" y="0.5" width="4" height="4"/>
        </g>
      </g>
      <g transform="translate(-823 -283)">
        <g id="Rectangle_25-27" data-name="Rectangle 25" class="cls-4" transform="translate(853 301)">
          <rect class="cls-6" width="5" height="5"/>
          <rect class="cls-1" x="0.5" y="0.5" width="4" height="4"/>
        </g>
      </g>
      <g transform="translate(-817 -283)">
        <g id="Rectangle_25-28" data-name="Rectangle 25" class="cls-4" transform="translate(853 301)">
          <rect class="cls-6" width="5" height="5"/>
          <rect class="cls-1" x="0.5" y="0.5" width="4" height="4"/>
        </g>
      </g>
    </g>
    <path id="Tracé_64" data-name="Tracé 64" class="cls-4" d="M6820.2,292.1l24.3-6.7,23.9,6.7" transform="translate(-5970)"/>
    <circle id="Ellipse_7" data-name="Ellipse 7" class="cls-5" cx="1.5" cy="1.5" r="1.5" transform="translate(873 284)"/>
  </g>
</svg>
