<svg xmlns="http://www.w3.org/2000/svg" viewBox="1560 673 46 46">
  <defs>
    <style>
      .cls-1, .cls-5 {
        fill: none;
      }

      .cls-1 {
        stroke: #dbdbdb;
        stroke-width: 2px;
      }

      .cls-2 {
        fill: #fff;
      }

      .cls-3 {
        fill: #12151e;
      }

      .cls-4 {
        stroke: none;
      }
    </style>
  </defs>
  <g id="Allociné" transform="translate(-62.5 -42)">
    <g id="Ellipse_2" data-name="Ellipse 2" class="cls-1" transform="translate(1622.5 715)">
      <circle class="cls-4" cx="23" cy="23" r="23"/>
      <circle class="cls-5" cx="23" cy="23" r="22"/>
    </g>
    <path id="Tracé_47" data-name="Tracé 47" class="cls-2" d="M1630.9,725.3l8,32,7-1.8s-.2-3.9,2.9-4.9,5.1,2.6,5.1,2.6l7.1-2.6-8.2-31.3-6.9,1.7s.4,3.9-3,5.1-5.5-2.9-5.5-2.9Z"/>
    <path id="Tracé_48" data-name="Tracé 48" class="cls-3" d="M1652,725.6c-1.7-.7-6-2.2-9.1,4.5a77.357,77.357,0,0,0-4.5,12.3s-1,6.7,2.1,8.7,3.9,0,3.9,0l2-5.7s.7-3.1-4.1-3c1.2-3.9,3.6-9.7,3.6-9.7s4.7,3.7,6.1-1.1S1653.7,726.3,1652,725.6Z"/>
  </g>
</svg>
